# xmcd
#
# Track frame offsets:
#	150
#	11133
#	25092
#	39078
#	49902
#	60930
#	73158
#	85215
#	99887
#	117904
#	129724
#	142938
#	154754
#	167710
#	177835
#	191995
#	205320
#	219135
#	232690
#	245954
#	259795
#	269917
#	282205
#	293079
#
# Disc length: 4067 seconds
#
# Revision: 0
# Processed by: cddbd v1.5.2PL0 Copyright (c) Steve Scherf et al.
# Submitted via: EZCDAudioConverter 7.0.5.1
#
DISCID=5b0fe118
DTITLE=Wanda Jackson - Tears Will Be The Chaser For Your Wine [CD8]
DYEAR=1997
DGENRE=Pop/Schlager
TTITLE0=Oh Blacky Joe (Japanese Version)
TTITLE1=Santo Domingo (Japanese Version)
TTITLE2=Santo Domingo (German Version)
TTITLE3=Oh Blacky Joe (German Version)
TTITLE4=Morgen, Ja Morgen
TTITLE5=Ich Schau Hinunter In's Tal
TTITLE6=Oh, Lonesome Me (German Version)
TTITLE7=Komm Heim, Mein Wandersmann
TTITLE8=Doch Dann Kam Johnny
TTITLE9=Das Kommt Vom Glück In Der Liebe
TTITLE10=Wer An Das Meer Sein Herz Verliert
TTITLE11=Louisiana Moon
TTITLE12=Ohne Sterne Ist Der Himmel Leer
TTITLE13=Wenn Der Abschied Kommt
TTITLE14=Abschiedsrosen
TTITLE15=Der Mond Ist Der Freund Der Verliebten
TTITLE16=Addio My Love
TTITLE17=Vom Winde Verweht
TTITLE18=Warum Gleich Tränen
TTITLE19=Schick Ihn Nicht Fort, Daddy
TTITLE20=Was Hat Man Denn Bloss Von Einem Mann
TTITLE21=Ein Herz Gewnnt, Ein Herz Verliert
TTITLE22=Morgen, Ja Morgen (Dutch Version)
TTITLE23=Ik Hou Van Jou (Dutch Version)
EXTD=
EXTT0=
EXTT1=
EXTT2=
EXTT3=
EXTT4=
EXTT5=
EXTT6=
EXTT7=
EXTT8=
EXTT9=
EXTT10=
EXTT11=
EXTT12=
EXTT13=
EXTT14=
EXTT15=
EXTT16=
EXTT17=
EXTT18=
EXTT19=
EXTT20=
EXTT21=
EXTT22=
EXTT23=
PLAYORDER=
